<svg width="12" height="8" viewBox="0 0 12 8" fill="none" xmlns="http://www.w3.org/2000/svg">
<path d="M6.46824 7.35858L11.8083 2.01835C11.9319 1.89484 12 1.72996 12 1.55415C12 1.37835 11.9319 1.21347 11.8083 1.08996L11.4151 0.696684C11.1589 0.44078 10.7425 0.44078 10.4867 0.696684L6.00249 5.18101L1.51326 0.691709C1.38965 0.568196 1.22487 0.5 1.04916 0.5C0.873261 0.5 0.708482 0.568196 0.584775 0.691709L0.191706 1.08498C0.0680971 1.20859 0 1.37337 0 1.54918C0 1.72498 0.0680971 1.88986 0.191706 2.01338L5.53664 7.35858C5.66064 7.48239 5.8262 7.55039 6.00219 7.55C6.17888 7.55039 6.34434 7.48239 6.46824 7.35858Z" fill="#999999"/>
</svg>
