<svg width="15" height="20" viewBox="0 0 15 20" fill="none" xmlns="http://www.w3.org/2000/svg">
<path d="M6.26967 20H9.41871C9.85351 20 10.206 19.6502 10.206 19.2188C10.206 18.7873 9.85351 18.4375 9.41871 18.4375H6.26967C5.83486 18.4375 5.48241 18.7873 5.48241 19.2188C5.48241 19.6502 5.83486 20 6.26967 20Z" fill="white"/>
<path d="M7.84419 0C7.40938 0 7.05693 0.349766 7.05693 0.78125V1.61855C4.38989 1.99879 2.33337 4.28102 2.33337 7.03125V11.8342C2.33337 12.1095 2.20839 12.36 2.02244 12.4575C1.24301 12.8659 0.75885 13.6605 0.75885 14.5312C0.75885 15.8236 1.81834 16.875 3.12063 16.875H12.5677C13.87 16.875 14.9295 15.8236 14.9295 14.5312C14.9295 13.6605 14.4454 12.8659 13.6659 12.4575C13.4799 12.36 13.355 12.1096 13.355 11.8342V7.03125C13.355 4.28102 11.2985 1.99879 8.63145 1.61855V0.78125C8.63145 0.349766 8.27899 0 7.84419 0ZM11.7805 7.03125V11.8342C11.7805 12.6991 12.2212 13.4674 12.9307 13.8392C13.1924 13.9763 13.355 14.2415 13.355 14.5312C13.355 14.962 13.0018 15.3125 12.5677 15.3125H3.12063C2.68653 15.3125 2.33337 14.962 2.33337 14.5312C2.33337 14.2415 2.49594 13.9763 2.75762 13.8392C3.46714 13.4674 3.90789 12.6991 3.90789 11.8342V7.03125C3.90789 4.87734 5.67371 3.125 7.84419 3.125C10.0147 3.125 11.7805 4.87734 11.7805 7.03125Z" fill="white"/>
</svg>
