<svg width="21" height="21" viewBox="0 0 21 21" fill="none" xmlns="http://www.w3.org/2000/svg">
<path fill-rule="evenodd" clip-rule="evenodd" d="M5.70002 0.912109C5.03728 0.912109 4.50002 1.44937 4.50002 2.11211V3.31211H3.30002C1.97454 3.31211 0.900024 4.38663 0.900024 5.71211V17.7121C0.900024 19.0376 1.97454 20.1121 3.30002 20.1121H17.7C19.0255 20.1121 20.1 19.0376 20.1 17.7121V5.71211C20.1 4.38663 19.0255 3.31211 17.7 3.31211H16.5V2.11211C16.5 1.44937 15.9628 0.912109 15.3 0.912109C14.6373 0.912109 14.1 1.44937 14.1 2.11211V3.31211H6.90002V2.11211C6.90002 1.44937 6.36277 0.912109 5.70002 0.912109ZM5.70002 6.91211C5.03728 6.91211 4.50002 7.44937 4.50002 8.11211C4.50002 8.77485 5.03728 9.31211 5.70002 9.31211H15.3C15.9628 9.31211 16.5 8.77485 16.5 8.11211C16.5 7.44937 15.9628 6.91211 15.3 6.91211H5.70002Z" fill="#44749C"/>
</svg>
