<svg width="12" height="12" viewBox="0 0 12 12" fill="none" xmlns="http://www.w3.org/2000/svg">
<path fill-rule="evenodd" clip-rule="evenodd" d="M3.19999 0.400002C2.81339 0.400002 2.49999 0.713402 2.49999 1.1V1.8H1.79999C1.0268 1.8 0.399994 2.4268 0.399994 3.2V10.2C0.399994 10.9732 1.0268 11.6 1.79999 11.6H10.2C10.9732 11.6 11.6 10.9732 11.6 10.2V3.2C11.6 2.4268 10.9732 1.8 10.2 1.8H9.49999V1.1C9.49999 0.713402 9.18659 0.400002 8.79999 0.400002C8.41339 0.400002 8.09999 0.713402 8.09999 1.1V1.8H3.89999V1.1C3.89999 0.713402 3.58659 0.400002 3.19999 0.400002ZM3.19999 3.9C2.81339 3.9 2.49999 4.2134 2.49999 4.6C2.49999 4.9866 2.81339 5.3 3.19999 5.3H8.79999C9.18659 5.3 9.49999 4.9866 9.49999 4.6C9.49999 4.2134 9.18659 3.9 8.79999 3.9H3.19999Z" fill="#44749C"/>
</svg>
