<svg width="57" height="56" viewBox="0 0 57 56" fill="none" xmlns="http://www.w3.org/2000/svg">
<path d="M28.5 0C13.0244 0 0.5 12.523 0.5 28C0.5 43.4754 13.023 56 28.5 56C43.9756 56 56.5 43.477 56.5 28C56.5 12.5246 43.977 0 28.5 0ZM31.3754 39.1148C31.3754 39.9994 30.0854 40.8838 28.5005 40.8838C26.842 40.8838 25.6627 39.9994 25.6627 39.1148V25.0725C25.6627 24.0405 26.8421 23.3401 28.5005 23.3401C30.0854 23.3401 31.3754 24.0405 31.3754 25.0725V39.1148ZM28.5007 19.9496C26.8052 19.9496 25.4785 18.6965 25.4785 17.2958C25.4785 15.8952 26.8053 14.679 28.5007 14.679C30.1592 14.679 31.4862 15.8952 31.4862 17.2958C31.4862 18.6965 30.1591 19.9496 28.5007 19.9496Z" fill="#44749C"/>
</svg>
