<svg width="90" height="90" viewBox="0 0 90 90" fill="none" xmlns="http://www.w3.org/2000/svg">
<path d="M73.2422 56.4844H16.7578C15.3016 56.4844 14.121 57.6649 14.121 59.1211V87.3633C14.121 88.8195 15.3016 90.0001 16.7578 90.0001H73.2421C74.6982 90.0001 75.8788 88.8195 75.8788 87.3633V59.1211C75.879 57.6649 74.6984 56.4844 73.2422 56.4844Z" fill="#EEF1F4"/>
<path d="M75.879 87.3633V59.1211C75.879 57.6649 74.6984 56.4844 73.2422 56.4844H45V90.0001H73.2422C74.6984 90.0001 75.879 88.8195 75.879 87.3633Z" fill="#D1D6E2"/>
<path d="M45 44.8124C43.5442 44.8124 42.364 43.6328 42.3633 42.1771C42.3633 42.1021 42.332 34.5901 40.3146 27.2505C37.8515 18.2897 33.7268 13.7461 28.0547 13.7461C22.9866 13.7461 20.718 16.7629 20.718 19.7527C20.718 23.8414 24.7815 28.2421 33.7031 28.2421C35.1593 28.2421 36.3398 29.4226 36.3398 30.8788C36.3398 32.335 35.1593 33.5155 33.7031 33.5155C22.2051 33.5155 15.4445 27.1213 15.4445 19.7527C15.4445 14.1472 19.7759 8.47266 28.0547 8.47266C33.8049 8.47266 41.4863 11.5047 45.4256 25.9488C47.6116 33.9639 47.6367 41.8442 47.6367 42.1757C47.6367 43.6319 46.4562 44.8124 45 44.8124Z" fill="#F3F9FF"/>
<path d="M53.4727 33.5156C52.0165 33.5156 50.8359 32.3351 50.8359 30.8789C50.8359 29.4227 52.0165 28.2422 53.4727 28.2422C66.0839 28.2422 70.6718 21.7548 70.6718 16.9753C70.6718 12.1396 66.4796 8.09766 59.1212 8.09766C57.665 8.09766 56.4845 6.91711 56.4845 5.46094C56.4845 4.00477 57.665 2.82422 59.1212 2.82422C71.1237 2.82422 75.9452 10.8031 75.9452 16.9753C75.9452 25.7925 67.7099 33.5156 53.4727 33.5156Z" fill="#E1EEFF"/>
<path d="M47.8243 8.0978C47.1251 8.0978 46.4544 7.82007 45.96 7.32542L43.1357 4.50114C42.106 3.47142 42.106 1.80202 43.1357 0.772295C44.1652 -0.257432 45.8348 -0.257432 46.8645 0.772295L47.8243 1.73206L48.7839 0.772295C49.8136 -0.257432 51.483 -0.257432 52.5128 0.772295C53.5425 1.80202 53.5425 3.47142 52.5128 4.50114L49.6886 7.32542C49.1944 7.82007 48.5236 8.0978 47.8243 8.0978Z" fill="#8C95A3" fill-opacity="0.5"/>
<path d="M89.7993 43.991C89.3911 43.0058 88.4298 42.3633 87.3633 42.3633H59.1211C58.4218 42.3633 57.7512 42.6412 57.2567 43.1357L45 55.3924L32.7433 43.1357C32.2489 42.6412 31.5783 42.3633 30.879 42.3633H2.63693C1.57047 42.3633 0.608945 43.0058 0.200956 43.991C-0.207032 44.9763 0.0184954 46.1104 0.772597 46.8645L14.1213 60.2132H75.879L89.2277 46.8645C89.9818 46.1104 90.2075 44.9763 89.7993 43.991Z" fill="#D1D6E2"/>
<path d="M89.2276 46.8645C89.9817 46.1104 90.2074 44.9763 89.7993 43.991C89.3911 43.0058 88.4297 42.3633 87.3633 42.3633H59.121C58.4218 42.3633 57.7512 42.6412 57.2567 43.1357L45 55.3925V60.2133H75.879L89.2276 46.8645Z" fill="#8C95A3" fill-opacity="0.5"/>
</svg>
