<svg width="20" height="21" viewBox="0 0 20 21" fill="none" xmlns="http://www.w3.org/2000/svg">
<path d="M1 5.51172C1 4.40715 1.89543 3.51172 3 3.51172H17C18.1046 3.51172 19 4.40715 19 5.51172V17.5117C19 18.6163 18.1046 19.5117 17 19.5117H3C1.89543 19.5117 1 18.6163 1 17.5117V5.51172Z" fill="white"/>
<path d="M6 5.51172V1.51172M14 5.51172V1.51172M5 9.51172H15M3 19.5117H17C18.1046 19.5117 19 18.6163 19 17.5117V5.51172C19 4.40715 18.1046 3.51172 17 3.51172H3C1.89543 3.51172 1 4.40715 1 5.51172V17.5117C1 18.6163 1.89543 19.5117 3 19.5117Z" stroke="#D1D3D9" stroke-width="2" stroke-linecap="round" stroke-linejoin="round"/>
</svg>
