<svg width="12" height="13" viewBox="0 0 12 13" fill="none" xmlns="http://www.w3.org/2000/svg">
<path d="M6.00001 0.961426C2.95602 0.961426 0.461548 3.4559 0.461548 6.49989C0.461548 9.54388 2.95602 12.0383 6.00001 12.0383C9.044 12.0383 11.5385 9.54388 11.5385 6.49989C11.5385 3.4559 9.044 0.961426 6.00001 0.961426ZM1.78126 6.49989C1.78126 4.17631 3.67643 2.28114 6.00001 2.28114C6.87619 2.28114 7.71998 2.55371 8.44039 3.06645L6.00001 5.50684L2.56662 8.94027C2.05383 8.21982 1.78126 7.37607 1.78126 6.49989ZM6.00001 10.7186C5.12383 10.7186 4.28004 10.446 3.55962 9.93328L9.43342 4.05948C9.94618 4.77991 10.2188 5.62366 10.2188 6.49989C10.2188 8.82342 8.32359 10.7186 6.00001 10.7186Z" fill="white"/>
</svg>
