<svg width="24" height="24" viewBox="0 0 24 24" fill="none" xmlns="http://www.w3.org/2000/svg">
<path fill-rule="evenodd" clip-rule="evenodd" d="M5.29279 5.29358C5.48032 5.1061 5.73463 5.00079 5.99979 5.00079C6.26495 5.00079 6.51926 5.1061 6.70679 5.29358L11.9998 10.5866L17.2928 5.29358C17.3851 5.19806 17.4954 5.12188 17.6174 5.06947C17.7394 5.01706 17.8707 4.98948 18.0034 4.98832C18.1362 4.98717 18.2679 5.01247 18.3908 5.06275C18.5137 5.11303 18.6253 5.18729 18.7192 5.28118C18.8131 5.37507 18.8874 5.48672 18.9377 5.60962C18.9879 5.73252 19.0132 5.8642 19.0121 5.99698C19.0109 6.12976 18.9833 6.26098 18.9309 6.38298C18.8785 6.50498 18.8023 6.61533 18.7068 6.70757L13.4138 12.0006L18.7068 17.2936C18.889 17.4822 18.9898 17.7348 18.9875 17.997C18.9852 18.2592 18.8801 18.51 18.6946 18.6954C18.5092 18.8808 18.2584 18.986 17.9962 18.9883C17.734 18.9906 17.4814 18.8898 17.2928 18.7076L11.9998 13.4146L6.70679 18.7076C6.51819 18.8898 6.26559 18.9906 6.00339 18.9883C5.74119 18.986 5.49038 18.8808 5.30497 18.6954C5.11956 18.51 5.01439 18.2592 5.01212 17.997C5.00984 17.7348 5.11063 17.4822 5.29279 17.2936L10.5858 12.0006L5.29279 6.70757C5.10532 6.52005 5 6.26574 5 6.00057C5 5.73541 5.10532 5.4811 5.29279 5.29358Z" fill="black"/>
</svg>
