<svg width="19" height="18" viewBox="0 0 19 18" fill="none" xmlns="http://www.w3.org/2000/svg">
<path d="M13.9494 8.20463C13.8583 8.00325 13.6581 7.875 13.4376 7.875H11.1876V0.5625C11.1876 0.252 10.9356 0 10.6251 0H8.37507C8.06457 0 7.81257 0.252 7.81257 0.5625V7.875H5.56257C5.34207 7.875 5.14182 8.00438 5.05069 8.20463C4.95844 8.406 4.99444 8.64112 5.13957 8.80762L9.07707 13.3076C9.18394 13.4303 9.33807 13.5 9.50007 13.5C9.66207 13.5 9.81619 13.4291 9.92307 13.3076L13.8606 8.80762C14.0068 8.64225 14.0406 8.406 13.9494 8.20463Z" fill="#3457A2"/>
<path d="M15.6875 12.375V15.75H3.3125V12.375H1.0625V16.875C1.0625 17.4971 1.5665 18 2.1875 18H16.8125C17.4346 18 17.9375 17.4971 17.9375 16.875V12.375H15.6875Z" fill="#3457A2"/>
</svg>
