<svg width="21" height="20" viewBox="0 0 21 20" fill="none" xmlns="http://www.w3.org/2000/svg">
<path fill-rule="evenodd" clip-rule="evenodd" d="M3.54248 17C3.54248 16.4477 3.98356 16 4.52765 16H16.3497C16.8938 16 17.3349 16.4477 17.3349 17C17.3349 17.5523 16.8938 18 16.3497 18H4.52765C3.98356 18 3.54248 17.5523 3.54248 17ZM6.78655 9.29289C7.17129 8.90237 7.79507 8.90237 8.1798 9.29289L9.45352 10.5858L9.45352 3C9.45352 2.44772 9.8946 2 10.4387 2C10.9828 2 11.4239 2.44771 11.4239 3L11.4239 10.5858L12.6976 9.29289C13.0823 8.90237 13.7061 8.90237 14.0908 9.29289C14.4756 9.68342 14.4756 10.3166 14.0908 10.7071L11.1353 13.7071C10.9506 13.8946 10.7 14 10.4387 14C10.1774 14 9.92683 13.8946 9.74208 13.7071L6.78655 10.7071C6.40182 10.3166 6.40182 9.68342 6.78655 9.29289Z" fill="white"/>
</svg>
