<svg width="21" height="20" viewBox="0 0 21 20" fill="none" xmlns="http://www.w3.org/2000/svg">
<path d="M13.5358 7.58008C13.5358 7.74584 13.6021 7.90481 13.7202 8.02202C13.8383 8.13923 13.9985 8.20508 14.1656 8.20508H15.1103C15.3441 8.20508 15.5684 8.29727 15.7338 8.46136C15.8991 8.62545 15.992 8.84801 15.992 9.08008V17.3301C15.992 17.5621 15.8991 17.7847 15.7338 17.9488C15.5684 18.1129 15.3441 18.2051 15.1103 18.2051H5.54979C5.31594 18.2051 5.09167 18.1129 4.92632 17.9488C4.76096 17.7847 4.66806 17.5621 4.66806 17.3301L4.66806 9.08008C4.66806 8.84801 4.76096 8.62545 4.92632 8.46136C5.09167 8.29727 5.31594 8.20508 5.54979 8.20508H6.61417C6.7812 8.20508 6.9414 8.13923 7.05951 8.02202C7.17762 7.90481 7.24398 7.74584 7.24398 7.58008C7.24398 7.41432 7.17762 7.25535 7.05951 7.13814C6.9414 7.02093 6.7812 6.95508 6.61417 6.95508H5.54979C4.98187 6.95508 4.43721 7.17896 4.03563 7.57748C3.63405 7.97599 3.40845 8.51649 3.40845 9.08008L3.40845 17.3301C3.40845 17.8937 3.63405 18.4342 4.03563 18.8327C4.43721 19.2312 4.98187 19.4551 5.54979 19.4551H15.1103C15.6782 19.4551 16.2229 19.2312 16.6244 18.8327C17.026 18.4342 17.2516 17.8937 17.2516 17.3301V9.08008C17.2516 8.51649 17.026 7.97599 16.6244 7.57748C16.2229 7.17896 15.6782 6.95508 15.1103 6.95508H14.1656C13.9985 6.95508 13.8383 7.02093 13.7202 7.13814C13.6021 7.25535 13.5358 7.41432 13.5358 7.58008Z" fill="white"/>
<path d="M7.10544 4.19883C7.05241 4.26198 7.01245 4.3349 6.98786 4.4134C6.96327 4.49191 6.95453 4.57445 6.96213 4.65631C6.96974 4.73817 6.99354 4.81774 7.03218 4.89046C7.07082 4.96317 7.12354 5.02761 7.18731 5.08008C7.25056 5.13307 7.32372 5.17316 7.40259 5.19807C7.48147 5.22298 7.56452 5.23222 7.64699 5.22525C7.72947 5.21829 7.80975 5.19526 7.88325 5.15748C7.95675 5.1197 8.02203 5.06791 8.07534 5.00508L9.70654 3.06758V11.9551C9.70654 12.1208 9.7729 12.2798 9.89101 12.397C10.0091 12.5142 10.1693 12.5801 10.3364 12.5801C10.5034 12.5801 10.6636 12.5142 10.7817 12.397C10.8998 12.2798 10.9662 12.1208 10.9662 11.9551V3.05508L12.5911 4.99883C12.698 5.12646 12.8516 5.20673 13.0181 5.22197C13.1847 5.2372 13.3505 5.18616 13.4791 5.08008C13.6077 4.97399 13.6886 4.82155 13.7039 4.65628C13.7193 4.49101 13.6679 4.32646 13.561 4.19883L11.3314 1.51758C11.2133 1.37382 11.0644 1.25796 10.8956 1.17838C10.7267 1.09881 10.5422 1.05753 10.3552 1.05753C10.1683 1.05753 9.98375 1.09881 9.8149 1.17838C9.64605 1.25796 9.49717 1.37382 9.37904 1.51758L7.10544 4.19883Z" fill="white"/>
</svg>
