<svg width="18" height="19" viewBox="0 0 18 19" fill="none" xmlns="http://www.w3.org/2000/svg">
<path d="M15.335 6.46337C15.1414 6.2969 14.9468 6.13789 14.7518 5.9856L12.4771 8.26024C12.6157 8.64791 12.6915 9.06525 12.6915 9.49996C12.6915 11.5354 11.0355 13.1914 9.00005 13.1914C8.56535 13.1914 8.14801 13.1156 7.76034 12.977L6.05322 14.6841C7.05011 15.093 8.03888 15.3007 9.00005 15.3007C10.1482 15.3007 11.3356 15.0056 12.5292 14.4234C13.4665 13.9662 14.4105 13.3314 15.335 12.5365C16.8978 11.1927 17.8606 9.86382 17.9008 9.80789C18.0332 9.62395 18.0332 9.37599 17.9008 9.19202C17.8606 9.13609 16.8978 7.80725 15.335 6.46337Z" fill="#ABB0BC"/>
<path d="M9.00003 12.1367C10.4539 12.1367 11.6367 10.9539 11.6367 9.50003C11.6367 9.37354 11.6273 9.24922 11.6099 9.12744L8.62744 12.1099C8.74926 12.1273 8.87354 12.1367 9.00003 12.1367Z" fill="#ABB0BC"/>
<path d="M17.8456 0.654433C17.6397 0.448522 17.3058 0.448522 17.0998 0.654433L12.9567 4.79753C12.8141 4.7199 12.6716 4.64597 12.5292 4.57653C11.3355 3.99435 10.1481 3.69917 9.00003 3.69917C7.85193 3.69917 6.66453 3.99435 5.4709 4.5765C4.53357 5.03371 3.58955 5.66856 2.66512 6.46337C1.10228 7.80725 0.139491 9.13609 0.0992725 9.19202C-0.0330908 9.37596 -0.0330908 9.62392 0.0992725 9.80789C0.139491 9.86382 1.10224 11.1927 2.66512 12.5365C3.14405 12.9483 3.62826 13.3167 4.11405 13.6401L0.154503 17.5997C-0.0514424 17.8057 -0.0514424 18.1396 0.154503 18.3455C0.257476 18.4485 0.392405 18.5 0.52737 18.5C0.662335 18.5 0.7973 18.4485 0.900237 18.3455L17.8456 1.40017C18.0515 1.19426 18.0515 0.860343 17.8456 0.654433ZM5.30862 9.49996C5.30862 7.46451 6.96459 5.80855 9.00003 5.80855C9.82799 5.80855 10.5931 6.08256 11.2096 6.54465L10.453 7.30121C10.0361 7.02474 9.53669 6.86324 9.00003 6.86324C7.54614 6.86324 6.36331 8.04607 6.36331 9.49996C6.36331 10.0366 6.52482 10.536 6.80128 10.953L6.04472 11.7095C5.58263 11.0931 5.30862 10.3279 5.30862 9.49996Z" fill="#ABB0BC"/>
</svg>
