<svg width="15" height="17" viewBox="0 0 15 17" fill="none" xmlns="http://www.w3.org/2000/svg">
<path d="M11.1745 3.72086H14.0058L11.0258 0.793957V3.57242C11.0258 3.65422 11.0925 3.72086 11.1745 3.72086Z" fill="#44749C"/>
<path d="M11.1745 4.6547C10.5777 4.6547 10.0921 4.1692 10.0921 3.57242V0.522949H2.32761C1.36692 0.522949 0.585417 1.30445 0.585417 2.26514V14.7183C0.585417 15.6789 1.36692 16.4604 2.32761 16.4604H12.5395C13.5003 16.4604 14.2817 15.6789 14.2817 14.7183V4.6547H11.1745ZM10.1072 12.6006H4.09315C3.83527 12.6006 3.62623 12.3915 3.62623 12.1337C3.62623 11.8758 3.83527 11.6667 4.09315 11.6667H10.1072C10.3651 11.6667 10.5741 11.8758 10.5741 12.1337C10.5741 12.3915 10.3651 12.6006 10.1072 12.6006ZM3.62623 10.266C3.62623 10.0081 3.83527 9.79907 4.09315 9.79907H9.45979C9.71777 9.79907 9.92671 10.0081 9.92671 10.266C9.92671 10.5239 9.71757 10.7329 9.45979 10.7329H4.09315C3.83527 10.7329 3.62623 10.5239 3.62623 10.266ZM10.675 8.86523H4.09315C3.83527 8.86523 3.62623 8.65619 3.62623 8.39832C3.62623 8.14044 3.83527 7.9314 4.09315 7.9314H10.675C10.9328 7.9314 11.1419 8.14044 11.1419 8.39832C11.1419 8.65619 10.9328 8.86523 10.675 8.86523Z" fill="#44749C"/>
</svg>
