<svg width="19" height="20" viewBox="0 0 19 20" fill="none" xmlns="http://www.w3.org/2000/svg">
<path d="M18.0101 14.6233V7.52999C18.01 7.45242 17.9945 7.37563 17.9645 7.30408C17.9346 7.23254 17.8907 7.16764 17.8355 7.11316C17.7803 7.05867 17.7148 7.01568 17.6428 6.98668C17.5709 6.95767 17.4939 6.94321 17.4163 6.94416H10.4576C10.2677 6.94388 10.0819 6.88933 9.92198 6.78694C9.76208 6.68455 9.63478 6.53858 9.55509 6.36624L9.19884 5.58249L8.71593 4.53749C8.69259 4.48836 8.66615 4.44076 8.63676 4.39499C8.45073 4.0538 8.17597 3.76922 7.84152 3.57134C7.50707 3.37346 7.12536 3.26963 6.73676 3.27082H3.16634C2.88038 3.27062 2.59719 3.32678 2.33296 3.43612C2.06873 3.54545 1.82865 3.70581 1.62645 3.90801C1.42424 4.11021 1.26389 4.3503 1.15455 4.61453C1.04522 4.87876 0.98905 5.16195 0.989258 5.44791V14.6233C0.98905 14.9093 1.04522 15.1925 1.15455 15.4567C1.26389 15.7209 1.42424 15.961 1.62645 16.1632C1.82865 16.3654 2.06873 16.5258 2.33296 16.6351C2.59719 16.7444 2.88038 16.8006 3.16634 16.8004H15.833C16.119 16.8006 16.4022 16.7444 16.6664 16.6351C16.9306 16.5258 17.1707 16.3654 17.3729 16.1632C17.5751 15.961 17.7355 15.7209 17.8448 15.4567C17.9541 15.1925 18.0103 14.9093 18.0101 14.6233Z" fill="#44749C"/>
<path d="M10.2755 6.04169C10.2929 6.07496 10.3191 6.10287 10.3512 6.1224C10.3832 6.14192 10.42 6.15234 10.4576 6.15252H17.4164C17.6127 6.15052 17.8071 6.19103 17.9864 6.27127C17.9138 5.75151 17.656 5.27544 17.2604 4.93069C16.8647 4.58594 16.3578 4.39571 15.833 4.39502H9.52344L9.91927 5.25002L10.2755 6.04169Z" fill="#44749C"/>
</svg>
