<svg width="21" height="20" viewBox="0 0 21 20" fill="none" xmlns="http://www.w3.org/2000/svg">
<path d="M17.6346 6.45801H2.51921C2.17492 6.45801 1.8894 6.17467 1.8894 5.83301C1.8894 5.49134 2.17492 5.20801 2.51921 5.20801H17.6346C17.9789 5.20801 18.2644 5.49134 18.2644 5.83301C18.2644 6.17467 17.9789 6.45801 17.6346 6.45801Z" fill="white"/>
<path d="M15.1154 10.625H5.03844C4.69414 10.625 4.40863 10.3417 4.40863 10C4.40863 9.65833 4.69414 9.375 5.03844 9.375H15.1154C15.4597 9.375 15.7452 9.65833 15.7452 10C15.7452 10.3417 15.4597 10.625 15.1154 10.625Z" fill="white"/>
<path d="M11.7564 14.791H8.39745C8.05315 14.791 7.76764 14.5077 7.76764 14.166C7.76764 13.8243 8.05315 13.541 8.39745 13.541H11.7564C12.1007 13.541 12.3862 13.8243 12.3862 14.166C12.3862 14.5077 12.1007 14.791 11.7564 14.791Z" fill="white"/>
</svg>
