<svg width="36" height="36" viewBox="0 0 36 36" fill="none" xmlns="http://www.w3.org/2000/svg">
<rect width="36" height="36" rx="9" fill="#44749C"/>
<path d="M25.6346 14.4585H10.5192C10.1749 14.4585 9.8894 14.1752 9.8894 13.8335C9.8894 13.4918 10.1749 13.2085 10.5192 13.2085H25.6346C25.9789 13.2085 26.2644 13.4918 26.2644 13.8335C26.2644 14.1752 25.9789 14.4585 25.6346 14.4585Z" fill="white"/>
<path d="M23.1154 18.625H13.0384C12.6941 18.625 12.4086 18.3417 12.4086 18C12.4086 17.6583 12.6941 17.375 13.0384 17.375H23.1154C23.4597 17.375 23.7452 17.6583 23.7452 18C23.7452 18.3417 23.4597 18.625 23.1154 18.625Z" fill="white"/>
<path d="M19.7564 22.792H16.3974C16.0532 22.792 15.7676 22.5087 15.7676 22.167C15.7676 21.8253 16.0532 21.542 16.3974 21.542H19.7564C20.1007 21.542 20.3862 21.8253 20.3862 22.167C20.3862 22.5087 20.1007 22.792 19.7564 22.792Z" fill="white"/>
</svg>
