<svg width="57" height="56" viewBox="0 0 57 56" fill="none" xmlns="http://www.w3.org/2000/svg">
<path fill-rule="evenodd" clip-rule="evenodd" d="M28.5 56C43.964 56 56.5 43.464 56.5 28C56.5 12.536 43.964 0 28.5 0C13.036 0 0.5 12.536 0.5 28C0.5 43.464 13.036 56 28.5 56ZM41.4749 23.4749C42.8417 22.108 42.8417 19.892 41.4749 18.5251C40.108 17.1583 37.892 17.1583 36.5251 18.5251L25 30.0503L20.4749 25.5251C19.108 24.1583 16.892 24.1583 15.5251 25.5251C14.1583 26.892 14.1583 29.108 15.5251 30.4749L22.5251 37.4749C23.892 38.8417 26.108 38.8417 27.4749 37.4749L41.4749 23.4749Z" fill="#039500"/>
</svg>
