<svg width="9" height="10" viewBox="0 0 9 10" fill="none" xmlns="http://www.w3.org/2000/svg">
<path fill-rule="evenodd" clip-rule="evenodd" d="M4.5001 9.39961C6.93015 9.39961 8.9001 7.42966 8.9001 4.99961C8.9001 2.56956 6.93015 0.599609 4.5001 0.599609C2.07004 0.599609 0.100098 2.56956 0.100098 4.99961C0.100098 7.42966 2.07004 9.39961 4.5001 9.39961ZM6.53901 4.28852C6.75379 4.07373 6.75379 3.72549 6.53901 3.5107C6.32422 3.29591 5.97598 3.29591 5.76119 3.5107L3.9501 5.32179L3.23901 4.6107C3.02422 4.39591 2.67598 4.39591 2.46119 4.6107C2.2464 4.82549 2.2464 5.17373 2.46119 5.38852L3.56119 6.48852C3.77598 6.70331 4.12422 6.70331 4.33901 6.48852L6.53901 4.28852Z" fill="#039500"/>
</svg>
