<svg width="54" height="43" viewBox="0 0 54 43" fill="none" xmlns="http://www.w3.org/2000/svg">
<path d="M3.88591 17.4831L2.78647 17.5155L2.66492 13.4986L3.76434 13.4662L3.88591 17.4831Z" fill="#44749C"/>
<path d="M6.13338 8.34747L7.77307 11.5377C8.82388 10.2222 11.3955 8.87152 11.7818 8.67162C12.1681 8.47173 14.7641 7.16699 16.4443 7.07785L14.8046 3.88759C14.6911 3.83896 14.2481 3.78764 13.2594 4.05507C12.3275 4.30629 11.1956 4.76551 10.0692 5.34359C8.94274 5.92168 7.91084 6.5781 7.16527 7.1886C6.37379 7.83692 6.15499 8.22591 6.13068 8.34747H6.13338Z" fill="#44749C"/>
<path d="M7.63538 1.0022L18.9323 0L15.9365 4.00877L15.634 3.41987C15.353 2.87421 14.5859 2.75806 13.2865 3.07141C12.2384 3.32263 10.9445 3.83047 9.63975 4.5004C9.1103 4.77324 4.48295 7.20713 5.27443 8.74688L5.65802 9.49245L3.23765 9.54377L3.31058 13.2527H2.99183L2.84056 9.55188L0.25 9.6059L7.63808 1.0022H7.63538Z" fill="#44749C"/>
<path d="M13.5567 28.2883C9.89639 28.2883 6.91956 31.2652 6.91956 34.9255C6.91956 38.5858 9.89639 41.5626 13.5567 41.5626C17.2169 41.5626 20.1938 38.5858 20.1938 34.9255C20.1938 31.2652 17.2169 28.2883 13.5567 28.2883ZM13.5567 38.6965C11.4767 38.6965 9.78564 37.0055 9.78564 34.9255C9.78564 32.8455 11.4767 31.1544 13.5567 31.1544C15.6367 31.1544 17.3277 32.8455 17.3277 34.9255C17.3277 37.0055 15.6367 38.6965 13.5567 38.6965Z" fill="#13132A"/>
<path d="M32.5713 23.9175C32.0796 13.3769 27.7629 7.90137 18.5244 7.90137H16.9604C15.2802 7.977 12.6734 9.25744 12.2844 9.45193C11.8954 9.64643 9.31836 10.9728 8.25134 12.2775V27.7426C9.44802 26.8052 10.8662 26.1515 12.3546 25.8976V11.5374H18.3353C25.067 11.5374 28.2438 15.619 28.395 23.9202C28.5436 32.0971 25.8747 33.4991 22.5656 35.1469C22.5224 36.7893 21.9389 38.3291 20.9988 39.6284C28.0357 38.4074 33.0413 34.0042 32.5685 23.9202L32.5713 23.9175Z" fill="#13132A"/>
<path d="M53.5847 10.889L51.7559 9.72739C51.629 9.64636 51.4615 9.64636 51.3237 9.72739L48.9682 11.1105C49.0114 11.051 49.0168 10.9673 48.9763 10.8998L48.725 10.4703C48.671 10.3784 48.5522 10.346 48.4576 10.4L47.8687 10.7404L47.5527 10.373C46.9449 9.66257 46.3263 9.13041 45.6563 8.74412C44.7541 8.22276 43.6736 7.92562 42.4499 7.85809C40.8129 7.76894 39.1543 8.1039 37.6578 8.83055C36.3125 9.48157 35.2644 10.3865 34.6215 11.4427C33.6004 13.1257 33.5788 15.2867 34.5594 17.3667C35.2725 18.8768 36.4179 20.1842 37.7874 21.0486C38.1845 21.2999 38.6032 21.5295 39.0733 21.7537C39.5784 21.9941 40.0917 22.2264 40.586 22.4506C43.0226 23.5555 45.3268 24.6009 47.007 26.7808C47.342 27.2158 47.658 27.6885 47.9444 28.1882C49.4544 30.8085 49.3923 33.9853 47.785 36.2814C46.6342 37.9238 44.773 39.0394 42.6822 39.3366C40.8372 39.5986 39.0841 39.188 37.7064 38.1804C39.3785 38.175 40.8048 37.5753 41.8529 36.4408C43.6358 34.5093 43.8465 31.5541 42.3419 29.5713C41.0587 27.8776 38.6951 27.2049 36.5989 27.9343C34.5324 28.6529 32.4902 31.0246 32.8494 34.5525C32.8062 34.5336 32.7603 34.5147 32.7117 34.4958L31.6987 33.9555L29.9807 36.2625C30.5749 36.5326 31.1611 36.8244 31.7824 37.0243C32.4064 37.2242 33.0547 37.3349 33.695 37.47C34.4351 39.0962 35.4886 40.3037 36.8204 41.0573C38.3439 42.0028 40.2321 42.4323 42.1473 42.3242C43.2117 42.2648 44.2868 42.0352 45.3106 41.6381C45.813 41.4436 46.3047 41.2086 46.7666 40.9385C47.3069 40.6251 47.8201 40.2658 48.2874 39.8687C50.0757 38.356 51.2967 36.3138 51.7262 34.123C52.3691 30.8517 51.4345 27.3373 49.2302 24.7224C47.631 22.8288 45.4267 21.5511 43.6844 20.6515C43.0361 20.3166 42.3581 20.0302 41.7016 19.7547C40.5293 19.2604 39.4244 18.7957 38.4439 18.0664C37.52 17.3802 36.9095 16.3267 36.7636 15.1733C36.634 14.1468 36.9068 13.1581 37.5281 12.3936C38.144 11.6372 39.1165 11.1051 40.2699 10.8998C41.2964 10.7161 42.2581 10.6945 43.055 10.8376C43.9113 10.9916 44.6136 11.4103 44.981 11.9857L45.189 12.3153L45.2214 12.2964L44.5569 12.688C44.4651 12.7421 44.4327 12.8609 44.4867 12.9555L44.7379 13.385C44.7784 13.4525 44.8514 13.4876 44.9243 13.4795L42.8389 14.7059C42.7038 14.787 42.6228 14.9328 42.6309 15.0841L42.7578 17.2479C42.7741 17.5396 43.1009 17.699 43.3629 17.545L53.5415 11.5616C53.8035 11.4076 53.8224 11.0456 53.5766 10.889H53.5847ZM35.9316 35.4521L35.594 35.3818C35.5481 35.2279 35.521 35.1036 35.5048 35.0226L35.4832 34.8929C35.2482 33.4774 35.7452 31.9593 36.6907 31.2002C36.8825 31.0462 37.0932 30.922 37.3174 30.8301C37.9792 30.5627 38.7572 30.6167 39.3488 30.9706C39.9593 31.3353 40.3213 31.9512 40.3699 32.6994C40.4293 33.5774 40.0484 34.4553 39.3812 34.9875C38.3547 35.8033 37.1148 35.6925 35.9289 35.4494L35.9316 35.4521Z" fill="#13132A"/>
</svg>
