<svg width="88" height="94" viewBox="0 0 88 94" fill="none" xmlns="http://www.w3.org/2000/svg">
<path fill-rule="evenodd" clip-rule="evenodd" d="M35.0448 8.59953C43.758 8.59953 50.9017 15.7248 50.9017 24.4154V36.4193H59.5234V24.4154C59.5236 10.9747 48.5151 0 35.0448 0C21.5746 0 10.5661 10.9747 10.5661 24.4154V36.4193H19.1879V24.4154C19.188 15.7248 26.3317 8.59953 35.0448 8.59953Z" fill="#DEDBEE"/>
<path fill-rule="evenodd" clip-rule="evenodd" d="M59.5236 24.4154C59.5236 10.9747 48.5151 0 35.0449 0C32.2875 0 29.632 0.461004 27.154 1.30811C28.143 1.18473 29.1482 1.12047 30.1695 1.12047C43.6398 1.12047 54.6483 12.1005 54.6483 25.5359V36.4193H59.5236V24.4154Z" fill="#D2CFE9"/>
<path fill-rule="evenodd" clip-rule="evenodd" d="M9.52881 34.5323C4.44381 34.5323 0.283394 38.6819 0.283394 43.7539V57.4735C0.283394 76.5437 15.9252 92.1452 35.0449 92.1452C41.5488 92.1452 47.6497 90.3384 52.8637 87.2074L69.8063 54.4497V43.7539C69.8063 38.6821 65.6459 34.5323 60.5609 34.5323C43.5485 34.5323 26.5413 34.5323 9.52881 34.5323Z" fill="#44749C"/>
<path fill-rule="evenodd" clip-rule="evenodd" d="M35.0449 48.0214C30.8898 48.0214 27.5195 51.3775 27.5195 55.5219C27.5195 58.1972 28.9224 60.5401 31.0295 61.875L29.45 72.1401C29.3986 72.4737 29.6567 72.7746 29.9944 72.7746H40.095C40.4326 72.7746 40.6907 72.4737 40.6393 72.1401L39.0599 61.875C41.167 60.5401 42.5698 58.197 42.5698 55.5219C42.5702 51.3775 39.1999 48.0214 35.0449 48.0214Z" fill="#2F4A6B"/>
<path fill-rule="evenodd" clip-rule="evenodd" d="M67.8391 54.3531C56.863 54.3531 47.9669 63.2261 47.9669 74.1739C47.9669 79.1653 49.8161 83.7225 52.8637 87.2073C56.5081 91.3677 61.8672 94 67.8391 94C78.8153 94 87.7166 85.1216 87.7166 74.1739C87.7166 63.8908 79.8634 55.4362 69.8065 54.4497C69.1613 54.3853 68.5056 54.3531 67.8391 54.3531Z" fill="#F58500"/>
<path fill-rule="evenodd" clip-rule="evenodd" d="M33.8085 48.1179C36.6359 49.2169 38.6462 51.9941 38.6462 55.2432C38.6462 57.9613 37.2434 60.3418 35.1363 61.6982L36.8134 72.7746H40.0953C40.433 72.7746 40.6911 72.4737 40.6397 72.1401L39.0602 61.875C41.1673 60.5401 42.5702 58.197 42.5702 55.5219C42.5702 51.3776 39.1999 48.0214 35.0449 48.0214C34.6257 48.0214 34.2117 48.0535 33.8085 48.1179Z" fill="#13132A"/>
<path fill-rule="evenodd" clip-rule="evenodd" d="M87.7166 74.1739C87.7166 63.8908 79.8634 55.4362 69.8065 54.4497C69.1615 54.3855 68.5057 54.3531 67.8391 54.3531C66.4363 54.3531 65.06 54.4978 63.7378 54.7767C73.7679 55.7846 81.5996 64.2287 81.5996 74.5009C81.5996 84.0441 74.8322 92.011 65.8287 93.8981C66.4899 93.9624 67.1618 94 67.8391 94C78.8152 94 87.7166 85.1216 87.7166 74.1739Z" fill="#B86400"/>
<path fill-rule="evenodd" clip-rule="evenodd" d="M69.8063 43.7537C69.8063 38.6819 65.6459 34.5321 60.5609 34.5321H59.5234H54.6481H50.9015C55.9865 34.5321 60.1469 38.6817 60.1469 43.7537V55.8918C61.2918 55.4146 62.4958 55.034 63.7376 54.7766C65.0599 54.4979 66.4359 54.3531 67.8389 54.3531C68.5054 54.3531 69.1612 54.3852 69.8063 54.4496V43.7537Z" fill="#13132A"/>
<path d="M67.8395 80.537C67.1979 80.537 66.6782 80.0171 66.6782 79.3757V74.1524C66.6782 73.511 67.1981 72.9911 67.8395 72.9911C68.9084 72.9911 69.9018 72.5645 70.6371 71.7903C71.3669 71.0216 71.7384 70.0146 71.6833 68.9544C71.5787 66.9591 69.9263 65.364 67.9217 65.3236C67.8949 65.323 67.868 65.3227 67.8413 65.3227C65.9247 65.3227 64.294 66.727 64.0302 68.6199C64.0057 68.8013 63.9931 68.9837 63.9931 69.1574C63.9931 69.7987 63.4732 70.3186 62.8318 70.3186C62.1904 70.3186 61.6705 69.7987 61.6705 69.1574C61.6705 68.88 61.6904 68.5928 61.7293 68.3039C62.1599 65.2148 64.8413 62.94 67.969 63.0012C71.1841 63.0661 73.8348 65.6278 74.003 68.8331C74.0917 70.5361 73.4946 72.154 72.3219 73.3893C71.4303 74.3282 70.2603 74.9598 69.001 75.2024V79.3756C69.0007 80.0169 68.481 80.537 67.8395 80.537Z" fill="white"/>
<path d="M67.8395 80.537C67.1979 80.537 66.6782 80.0171 66.6782 79.3757V74.1524C66.6782 73.511 67.1981 72.9911 67.8395 72.9911C68.9084 72.9911 69.9018 72.5645 70.6371 71.7903C71.3669 71.0216 71.7384 70.0146 71.6833 68.9544C71.5787 66.9591 69.9263 65.364 67.9217 65.3236C67.8949 65.323 67.868 65.3227 67.8413 65.3227C65.9247 65.3227 64.294 66.727 64.0302 68.6199C64.0057 68.8013 63.9931 68.9837 63.9931 69.1574C63.9931 69.7987 63.4732 70.3186 62.8318 70.3186C62.1904 70.3186 61.6705 69.7987 61.6705 69.1574C61.6705 68.88 61.6904 68.5928 61.7293 68.3039C62.1599 65.2148 64.8413 62.94 67.969 63.0012C71.1841 63.0661 73.8348 65.6278 74.003 68.8331C74.0917 70.5361 73.4946 72.154 72.3219 73.3893C71.4303 74.3282 70.2603 74.9598 69.001 75.2024V79.3756C69.0007 80.0169 68.481 80.537 67.8395 80.537Z" fill="#F3F6F9"/>
<path d="M67.8408 85.3521C67.7774 85.3521 67.7132 85.3469 67.6484 85.3361C67.0159 85.2306 66.5884 84.6322 66.694 83.9997L66.6983 83.9734C66.8037 83.3408 67.4006 82.9127 68.0347 83.0188C68.6672 83.1244 69.0947 83.7227 68.9893 84.3552L68.9849 84.3815C68.8903 84.9495 68.3983 85.3521 67.8408 85.3521Z" fill="white"/>
<path d="M67.8408 85.3521C67.7774 85.3521 67.7132 85.3469 67.6484 85.3361C67.0159 85.2306 66.5884 84.6322 66.694 83.9997L66.6983 83.9734C66.8037 83.3408 67.4006 82.9127 68.0347 83.0188C68.6672 83.1244 69.0947 83.7227 68.9893 84.3552L68.9849 84.3815C68.8903 84.9495 68.3983 85.3521 67.8408 85.3521Z" fill="#F3F6F9"/>
</svg>
