<svg width="135" height="107" viewBox="0 0 135 107" fill="none" xmlns="http://www.w3.org/2000/svg">
<path d="M9.17475 44.1161L6.40048 44.1979L6.09375 34.0618L8.86801 33.98L9.17475 44.1161Z" fill="#44749C"/>
<path d="M14.846 21.0631L18.9835 29.1133C21.6351 25.7937 28.1243 22.3855 29.0991 21.8811C30.0738 21.3767 36.6243 18.0844 40.8641 17.8594L36.7266 9.80923C36.4403 9.68654 35.3224 9.55702 32.8276 10.2318C30.476 10.8658 27.6199 12.0246 24.7775 13.4833C21.935 14.942 19.3312 16.5984 17.4498 18.1389C15.4526 19.7748 14.9005 20.7564 14.8392 21.0631H14.846Z" fill="#44749C"/>
<path d="M18.636 2.52891L47.1422 0L39.5828 10.1156L38.8193 8.62959C38.1104 7.25267 36.1746 6.95958 32.8959 7.75028C30.2511 8.38421 26.9861 9.66568 23.6938 11.3562C22.3577 12.0446 10.6813 18.1862 12.6785 22.0716L13.6464 23.9529L7.53893 24.0824L7.72296 33.4414H6.91863L6.53692 24.1029L0 24.2392L18.6428 2.52891H18.636Z" fill="#44749C"/>
<path d="M33.5776 71.3813C24.3414 71.3813 16.8297 78.893 16.8297 88.1292C16.8297 97.3655 24.3414 104.877 33.5776 104.877C42.8138 104.877 50.3254 97.3655 50.3254 88.1292C50.3254 78.893 42.8138 71.3813 33.5776 71.3813ZM33.5776 97.6449C28.3289 97.6449 24.0619 93.3779 24.0619 88.1292C24.0619 82.8806 28.3289 78.6135 33.5776 78.6135C38.8262 78.6135 43.0933 82.8806 43.0933 88.1292C43.0933 93.3779 38.8262 97.6449 33.5776 97.6449Z" fill="white"/>
<path d="M81.5582 60.3522C80.3176 33.7545 69.425 19.9376 46.113 19.9376H42.1663C37.9265 20.1285 31.3487 23.3595 30.3671 23.8503C29.3856 24.341 22.8827 27.6879 20.1902 30.9802V70.0042C23.2099 67.6389 26.7885 65.9894 30.5443 65.3486V29.1125H45.6358C62.6223 29.1125 70.6384 39.4121 71.0201 60.359C71.395 80.9923 64.6604 84.53 56.3103 88.688C56.2012 92.8324 54.7289 96.7178 52.3568 99.9964C70.1135 96.9154 82.7443 85.8047 81.5514 60.359L81.5582 60.3522Z" fill="white"/>
<path d="M134.583 27.4768L129.968 24.5457C129.648 24.3413 129.225 24.3413 128.878 24.5457L122.934 28.0358C123.043 27.8858 123.056 27.6745 122.954 27.5041L122.32 26.4203C122.184 26.1885 121.884 26.1067 121.645 26.243L120.159 27.1019L119.362 26.1749C117.828 24.3822 116.267 23.0393 114.577 22.0646C112.3 20.749 109.574 19.9992 106.486 19.8288C102.355 19.6039 98.1697 20.4491 94.3934 22.2827C90.9988 23.9255 88.3541 26.209 86.7318 28.8742C84.1552 33.1208 84.1007 38.5739 86.575 43.8226C88.3745 47.633 91.2647 50.9321 94.7206 53.1134C95.7226 53.7473 96.7791 54.3267 97.9652 54.8924C99.2399 55.4991 100.535 56.0853 101.782 56.6511C107.931 59.439 113.745 62.0769 117.985 67.5778C118.83 68.6752 119.628 69.8681 120.35 71.1291C124.161 77.7411 124.004 85.7572 119.948 91.5511C117.044 95.6955 112.348 98.5107 107.072 99.2605C102.416 99.9217 97.9925 98.8856 94.5161 96.3431C98.7354 96.3295 102.335 94.8162 104.979 91.9533C109.478 87.0796 110.01 79.6224 106.213 74.6191C102.975 70.3453 97.0109 68.648 91.7214 70.4884C86.5069 72.3016 81.3537 78.2864 82.2602 87.1886C82.1512 87.1409 82.0353 87.0932 81.9126 87.0455L79.3565 85.6822L75.0212 91.5034C76.5208 92.1851 78 92.9212 79.5678 93.4257C81.1423 93.9301 82.7783 94.2095 84.3938 94.5504C86.2615 98.6538 88.9199 101.701 92.2803 103.603C96.1248 105.988 100.889 107.072 105.722 106.799C108.408 106.65 111.121 106.07 113.704 105.068C114.972 104.577 116.213 103.984 117.378 103.303C118.742 102.512 120.037 101.605 121.216 100.603C125.728 96.7862 128.809 91.6329 129.893 86.1048C131.515 77.8501 129.157 68.982 123.595 62.3837C119.56 57.6054 113.997 54.3812 109.601 52.1113C107.965 51.2661 106.254 50.5436 104.598 49.8483C101.639 48.6009 98.8514 47.4285 96.377 45.588C94.0458 43.8567 92.5053 41.1983 92.1372 38.2877C91.81 35.6974 92.4985 33.2026 94.0662 31.2736C95.6204 29.365 98.0742 28.0221 100.985 27.5041C103.575 27.0406 106.002 26.986 108.013 27.3473C110.173 27.7358 111.946 28.7924 112.873 30.2443L113.398 31.0759L113.479 31.0282L111.802 32.0165C111.571 32.1529 111.489 32.4528 111.625 32.6914L112.259 33.7752C112.361 33.9456 112.545 34.0342 112.73 34.0138L107.467 37.1084C107.126 37.3129 106.922 37.681 106.942 38.0627L107.263 43.5227C107.304 44.2588 108.128 44.661 108.79 44.2725L134.474 29.1741C135.135 28.7856 135.183 27.8722 134.562 27.4768H134.583ZM90.0377 89.4585L89.1857 89.2813C89.0698 88.8927 89.0016 88.5792 88.9607 88.3747L88.9062 88.0475C88.3132 84.4757 89.5674 80.6449 91.9531 78.7294C92.4371 78.3409 92.9688 78.0274 93.5345 77.7956C95.2046 77.1208 97.1677 77.2571 98.6605 78.1501C100.201 79.0703 101.114 80.6244 101.237 82.5126C101.387 84.7279 100.426 86.9432 98.7423 88.2861C96.152 90.3446 93.0233 90.0652 90.0309 89.4517L90.0377 89.4585Z" fill="white"/>
</svg>
