<svg width="11" height="16" viewBox="0 0 11 16" fill="none" xmlns="http://www.w3.org/2000/svg">
<path d="M1.05424 8.62432L8.22922 15.7444C8.39517 15.9092 8.61669 16 8.8529 16C9.08911 16 9.31064 15.9092 9.47658 15.7444L10.005 15.2202C10.3488 14.8786 10.3488 14.3234 10.005 13.9823L3.97997 8.00332L10.0117 2.01768C10.1776 1.85286 10.2692 1.63316 10.2692 1.39888C10.2692 1.16435 10.1776 0.944643 10.0117 0.779701L9.48327 0.255608C9.31719 0.0907965 9.09579 9.53674e-07 8.85959 9.53674e-07C8.62338 9.53674e-07 8.40185 0.0907965 8.2359 0.255608L1.05424 7.38218C0.887903 7.54752 0.79654 7.76826 0.797064 8.00293C0.79654 8.2385 0.887903 8.45912 1.05424 8.62432Z" fill="white"/>
</svg>
