<svg width="9" height="9" viewBox="0 0 9 9" fill="none" xmlns="http://www.w3.org/2000/svg">
<path d="M4.4 0C1.96812 0 0 1.9679 0 4.4C0 6.83184 1.9679 8.8 4.4 8.8C6.83188 8.8 8.8 6.8321 8.8 4.4C8.8 1.96816 6.8321 0 4.4 0ZM4.85184 6.14661C4.85184 6.28562 4.64913 6.4246 4.40009 6.4246C4.13945 6.4246 3.95414 6.28562 3.95414 6.14661V3.93996C3.95414 3.7778 4.13947 3.66773 4.40009 3.66773C4.64913 3.66773 4.85184 3.7778 4.85184 3.93996V6.14661ZM4.4001 3.13493C4.13368 3.13493 3.9252 2.93801 3.9252 2.71791C3.9252 2.49782 4.1337 2.3067 4.4001 2.3067C4.66073 2.3067 4.86925 2.49782 4.86925 2.71791C4.86925 2.93801 4.66072 3.13493 4.4001 3.13493Z" fill="#F58500"/>
</svg>
