<svg width="13" height="13" viewBox="0 0 13 13" fill="none" xmlns="http://www.w3.org/2000/svg">
<path d="M6.83301 12.5C3.51681 12.5 0.833008 9.8165 0.833008 6.5C0.833008 3.18385 3.51651 0.500001 6.83301 0.500001C10.1492 0.500001 12.833 3.1835 12.833 6.5C12.833 9.81615 10.1495 12.5 6.83301 12.5ZM7.44916 4.11826C7.44916 3.9287 7.17273 3.73918 6.83312 3.73918C6.47772 3.73918 6.22502 3.9287 6.22502 4.11826V7.12733C6.22502 7.34846 6.47774 7.49856 6.83312 7.49856C7.17273 7.49856 7.44916 7.34846 7.44916 7.12733V4.11826ZM6.83315 8.22509C6.46984 8.22509 6.18555 8.49362 6.18555 8.79376C6.18555 9.09388 6.46987 9.3545 6.83315 9.3545C7.18855 9.3545 7.4729 9.09388 7.4729 8.79376C7.4729 8.49362 7.18853 8.22509 6.83315 8.22509Z" fill="#F58500"/>
</svg>
