<svg width="17" height="21" viewBox="0 0 17 21" fill="none" xmlns="http://www.w3.org/2000/svg">
<path d="M12.5 5.51172C12.5 7.72086 10.7091 9.51172 8.5 9.51172C6.29086 9.51172 4.5 7.72086 4.5 5.51172C4.5 3.30258 6.29086 1.51172 8.5 1.51172C10.7091 1.51172 12.5 3.30258 12.5 5.51172Z" fill="#44749C"/>
<path d="M8.5 12.5117C4.63401 12.5117 1.5 15.6457 1.5 19.5117H15.5C15.5 15.6457 12.366 12.5117 8.5 12.5117Z" fill="#44749C"/>
<path d="M12.5 5.51172C12.5 7.72086 10.7091 9.51172 8.5 9.51172C6.29086 9.51172 4.5 7.72086 4.5 5.51172C4.5 3.30258 6.29086 1.51172 8.5 1.51172C10.7091 1.51172 12.5 3.30258 12.5 5.51172Z" stroke="#44749C" stroke-width="2" stroke-linecap="round" stroke-linejoin="round"/>
<path d="M8.5 12.5117C4.63401 12.5117 1.5 15.6457 1.5 19.5117H15.5C15.5 15.6457 12.366 12.5117 8.5 12.5117Z" stroke="#44749C" stroke-width="2" stroke-linecap="round" stroke-linejoin="round"/>
</svg>
