<svg width="40" height="40" viewBox="0 0 40 40" fill="none" xmlns="http://www.w3.org/2000/svg">
<path fill-rule="evenodd" clip-rule="evenodd" d="M19.9054 39.3543C30.7073 39.3543 39.464 30.608 39.464 19.819C39.464 9.02994 30.7073 0.283691 19.9054 0.283691C9.10357 0.283691 0.346924 9.02994 0.346924 19.819C0.346924 30.608 9.10357 39.3543 19.9054 39.3543ZM22.3503 12.4932C22.3503 11.1446 21.2557 10.0513 19.9054 10.0513C18.5552 10.0513 17.4606 11.1446 17.4606 12.4932V17.3771H12.571C11.2208 17.3771 10.1262 18.4704 10.1262 19.819C10.1262 21.1676 11.2208 22.2609 12.571 22.2609H17.4606V27.1447C17.4606 28.4933 18.5552 29.5866 19.9054 29.5866C21.2557 29.5866 22.3503 28.4933 22.3503 27.1447V22.2609H27.2399C28.5901 22.2609 29.6847 21.1676 29.6847 19.819C29.6847 18.4704 28.5901 17.3771 27.2399 17.3771H22.3503V12.4932Z" fill="#44749C"/>
</svg>
