<svg width="14" height="14" viewBox="0 0 14 14" fill="none" xmlns="http://www.w3.org/2000/svg">
<path fill-rule="evenodd" clip-rule="evenodd" d="M7.0002 0.700195C7.49725 0.700195 7.9002 1.10314 7.9002 1.6002V6.1002H12.4002C12.8973 6.1002 13.3002 6.50314 13.3002 7.0002C13.3002 7.49725 12.8973 7.9002 12.4002 7.9002H7.9002V12.4002C7.9002 12.8973 7.49725 13.3002 7.0002 13.3002C6.50314 13.3002 6.1002 12.8973 6.1002 12.4002V7.9002H1.6002C1.10314 7.9002 0.700195 7.49725 0.700195 7.0002C0.700195 6.50314 1.10314 6.10019 1.6002 6.10019L6.1002 6.1002V1.6002C6.1002 1.10314 6.50314 0.700195 7.0002 0.700195Z" fill="#007AFF"/>
</svg>
