<svg width="54" height="55" viewBox="0 0 54 55" fill="none" xmlns="http://www.w3.org/2000/svg">
<g clip-path="url(#clip0_142_9615)">
<path d="M27 0.5C34.0764 0.5 40.7285 3.30548 45.7352 8.40479C50.742 13.5043 53.5 20.2841 53.5 27.5C53.5 34.7158 50.742 41.4955 45.7352 46.5951C40.7284 51.6944 34.0762 54.5 27 54.5C19.9235 54.5 13.2714 51.6944 8.26483 46.5951C3.25803 41.4955 0.5 34.7158 0.5 27.5C0.5 20.2841 3.25804 13.5043 8.26483 8.40479C13.2714 3.30548 19.9235 0.5 27 0.5Z" fill="black" fill-opacity="0.28" stroke="white"/>
<path d="M41.3472 26.105L21.0128 14.1476C20.5232 13.8597 19.9202 13.8597 19.4307 14.1476C18.9412 14.4354 18.6397 14.9673 18.6397 15.543V39.4573C18.6397 40.033 18.9412 40.565 19.4307 40.8527C19.6754 40.9967 19.9486 41.0687 20.2217 41.0687C20.4949 41.0687 20.7681 40.9967 21.0128 40.8527L41.3472 28.8958C41.8367 28.608 42.1383 28.0761 42.1383 27.5004C42.1383 26.9247 41.8367 26.3929 41.3472 26.105Z" fill="#F2F2F2"/>
</g>
<defs>
<clipPath id="clip0_142_9615">
<rect width="54" height="55" fill="white"/>
</clipPath>
</defs>
</svg>
