<svg width="162" height="163" viewBox="0 0 162 163" fill="none" xmlns="http://www.w3.org/2000/svg">
<ellipse cx="80.5" cy="81" rx="80.5" ry="81" fill="white"/>
<ellipse cx="80.5" cy="81" rx="80.5" ry="81" fill="#F3F6F9"/>
<path d="M80.0348 76.3178C87.7444 76.3178 93.9943 70.0291 93.9943 62.2716C93.9943 54.5141 87.7444 48.2253 80.0348 48.2253C72.3251 48.2253 66.0752 54.5141 66.0752 62.2716C66.0752 70.0291 72.3251 76.3178 80.0348 76.3178Z" fill="#44749C" fill-opacity="0.4"/>
<path d="M47.4625 118.457C47.4625 100.356 62.0456 85.682 80.0348 85.682C98.0239 85.682 112.607 100.356 112.607 118.457H47.4625Z" fill="#44749C" fill-opacity="0.4"/>
<ellipse cx="137.133" cy="138.105" rx="17.3945" ry="17.415" fill="white"/>
<path fill-rule="evenodd" clip-rule="evenodd" d="M136.905 157.354C147.707 157.354 156.464 148.608 156.464 137.819C156.464 127.03 147.707 118.284 136.905 118.284C126.104 118.284 117.347 127.03 117.347 137.819C117.347 148.608 126.104 157.354 136.905 157.354ZM139.35 130.493C139.35 129.145 138.256 128.051 136.905 128.051C135.555 128.051 134.461 129.145 134.461 130.493V135.377H129.571C128.221 135.377 127.126 136.47 127.126 137.819C127.126 139.168 128.221 140.261 129.571 140.261H134.461V145.145C134.461 146.493 135.555 147.587 136.905 147.587C138.256 147.587 139.35 146.493 139.35 145.145V140.261H144.24C145.59 140.261 146.685 139.168 146.685 137.819C146.685 136.47 145.59 135.377 144.24 135.377H139.35V130.493Z" fill="#44749C"/>
</svg>
