<svg width="71" height="71" viewBox="0 0 71 71" fill="none" xmlns="http://www.w3.org/2000/svg">
<path fill-rule="evenodd" clip-rule="evenodd" d="M70.3 35.5002C70.3 54.7197 54.7195 70.3002 35.5 70.3002C16.2804 70.3002 0.699951 54.7197 0.699951 35.5002C0.699951 16.2807 16.2804 0.700195 35.5 0.700195C54.7195 0.700195 70.3 16.2807 70.3 35.5002ZM35.5 22.4502C33.8954 22.4502 32.488 23.3168 31.7293 24.6284C30.5263 26.7079 27.8653 27.4185 25.7858 26.2156C23.7062 25.0126 22.9956 22.3516 24.1985 20.272C26.4484 16.3827 30.6642 13.7502 35.5 13.7502C42.7073 13.7502 48.55 19.5929 48.55 26.8002C48.55 32.4823 44.9186 37.3161 39.85 39.1076V39.8502C39.85 42.2526 37.9025 44.2002 35.5 44.2002C33.0976 44.2002 31.15 42.2526 31.15 39.8502V35.5002C31.15 33.0978 33.0976 31.1502 35.5 31.1502C37.9025 31.1502 39.85 29.2026 39.85 26.8002C39.85 24.3978 37.9025 22.4502 35.5 22.4502ZM35.5 57.2502C37.9024 57.2502 39.85 55.3026 39.85 52.9002C39.85 50.4978 37.9024 48.5502 35.5 48.5502C33.0975 48.5502 31.15 50.4978 31.15 52.9002C31.15 55.3026 33.0975 57.2502 35.5 57.2502Z" fill="#44749C"/>
</svg>
