<svg width="8" height="12" viewBox="0 0 8 12" fill="none" xmlns="http://www.w3.org/2000/svg">
<path d="M7.35864 5.53176L2.01841 0.191706C1.8949 0.068097 1.73002 0 1.55421 0C1.37841 0 1.21353 0.068097 1.09002 0.191706L0.696745 0.584873C0.440841 0.841066 0.440841 1.25745 0.696745 1.51326L5.18107 5.99751L0.69177 10.4867C0.568257 10.6104 0.500061 10.7751 0.500061 10.9508C0.500061 11.1267 0.568257 11.2915 0.69177 11.4152L1.08504 11.8083C1.20865 11.9319 1.37343 12 1.54924 12C1.72504 12 1.88992 11.9319 2.01344 11.8083L7.35864 6.46336C7.48245 6.33936 7.55045 6.1738 7.55006 5.99781C7.55045 5.82112 7.48245 5.65566 7.35864 5.53176Z" fill="#1C1C1E"/>
</svg>
