<svg width="8" height="12" viewBox="0 0 8 12" fill="none" xmlns="http://www.w3.org/2000/svg">
<path d="M6.85842 5.53176L1.51827 0.191706C1.39476 0.068097 1.22988 0 1.05408 0C0.878273 0 0.713397 0.068097 0.589885 0.191706L0.19662 0.584873C-0.05928 0.841066 -0.05928 1.25745 0.19662 1.51326L4.68088 5.99751L0.191645 10.4867C0.0681335 10.6104 -6.10352e-05 10.7751 -6.10352e-05 10.9508C-6.10352e-05 11.1267 0.0681335 11.2915 0.191645 11.4152L0.58491 11.8083C0.708519 11.9319 0.873298 12 1.0491 12C1.2249 12 1.38978 11.9319 1.51329 11.8083L6.85842 6.46336C6.98222 6.33936 7.05022 6.1738 7.04983 5.99781C7.05022 5.82112 6.98222 5.65566 6.85842 5.53176Z" fill="white"/>
</svg>
