<svg width="16" height="14" viewBox="0 0 16 14" fill="none" xmlns="http://www.w3.org/2000/svg">
<path d="M7.58333 0C3.73606 0 0.583328 3.15273 0.583328 7C0.583328 10.8473 3.73606 14 7.58333 14C11.4306 14 14.5833 10.8473 14.5833 7C14.5833 3.15273 11.4306 0 7.58333 0ZM2.2513 7C2.2513 4.06325 4.64658 1.66797 7.58333 1.66797C8.69072 1.66797 9.75718 2.01247 10.6677 2.66052L7.58333 5.74489L3.2439 10.0844C2.5958 9.1738 2.2513 8.10739 2.2513 7ZM7.58333 12.332C6.47593 12.332 5.40947 11.9875 4.49895 11.3394L11.9228 3.9156C12.5709 4.82614 12.9154 5.89255 12.9154 7C12.9154 9.93669 10.5201 12.332 7.58333 12.332Z" fill="#E31C01"/>
</svg>
