<svg width="57" height="56" viewBox="0 0 57 56" fill="none" xmlns="http://www.w3.org/2000/svg">
<path d="M28.5 56C43.9756 56 56.5 43.477 56.5 28C56.5 12.5246 43.977 0 28.5 0C13.0244 0 0.5 12.523 0.5 28C0.5 43.4754 13.023 56 28.5 56ZM25.6246 16.8852C25.6246 16.0006 26.9146 15.1162 28.4995 15.1162C30.158 15.1162 31.3373 16.0006 31.3373 16.8852V30.9275C31.3373 31.9595 30.1579 32.6599 28.4995 32.6599C26.9146 32.6599 25.6246 31.9595 25.6246 30.9275V16.8852ZM28.4993 36.0504C30.1948 36.0504 31.5215 37.3035 31.5215 38.7042C31.5215 40.1048 30.1947 41.321 28.4993 41.321C26.8408 41.321 25.5138 40.1048 25.5138 38.7042C25.5138 37.3035 26.8409 36.0504 28.4993 36.0504Z" fill="#E31C01"/>
</svg>
