<svg width="17" height="16" viewBox="0 0 17 16" fill="none" xmlns="http://www.w3.org/2000/svg">
<path d="M1.15602 4.97487L14.521 0.0848739C14.757 -0.00256016 15.013 -0.0204674 15.2588 0.0332775C15.5047 0.0870225 15.7299 0.210163 15.9078 0.388085C16.0857 0.566006 16.2089 0.791238 16.2626 1.03705C16.3164 1.28286 16.2985 1.53893 16.211 1.77487L11.316 15.1349C11.2264 15.3818 11.0648 15.5962 10.8522 15.7504C10.6396 15.9047 10.3856 15.9917 10.1231 16.0003C9.86055 16.0089 9.60145 15.9387 9.37918 15.7987C9.15691 15.6587 8.98166 15.4554 8.87602 15.2149L6.47602 9.80987L1.07102 7.40987C0.830521 7.30423 0.627169 7.12899 0.487176 6.90672C0.347183 6.68445 0.276965 6.42535 0.285573 6.16281C0.294181 5.90027 0.38122 5.64633 0.535471 5.4337C0.689723 5.22108 0.904118 5.05953 1.15102 4.96987L1.15602 4.97487Z" fill="#D8D8D8"/>
</svg>
