<svg width="68" height="69" viewBox="0 0 68 69" fill="none" xmlns="http://www.w3.org/2000/svg">
<path d="M48.537 43.2126H45.4695L44.3823 42.1642C48.1876 37.7376 50.4785 31.9908 50.4785 25.7393C50.4785 11.7994 39.1791 0.5 25.2393 0.5C11.2994 0.5 0 11.7994 0 25.7393C0 39.6791 11.2994 50.9785 25.2393 50.9785C31.4908 50.9785 37.2376 48.6876 41.6642 44.8823L42.7126 45.9695V49.037L62.1274 68.413L67.913 62.6274L48.537 43.2126ZM25.2393 43.2126C15.5707 43.2126 7.76593 35.4078 7.76593 25.7393C7.76593 16.0707 15.5707 8.26593 25.2393 8.26593C34.9078 8.26593 42.7126 16.0707 42.7126 25.7393C42.7126 35.4078 34.9078 43.2126 25.2393 43.2126Z" fill="#44749C"/>
</svg>
