<svg width="17" height="4" viewBox="0 0 17 4" fill="none" xmlns="http://www.w3.org/2000/svg">
<path d="M8.47683 3.875C9.51853 3.875 10.3662 3.03375 10.3662 2C10.3662 0.96625 9.51853 0.125 8.47683 0.125C7.43512 0.125 6.5874 0.96625 6.5874 2C6.5874 3.03375 7.43512 3.875 8.47683 3.875Z" fill="white"/>
<path d="M14.7749 3.875C15.8166 3.875 16.6643 3.03375 16.6643 2C16.6643 0.96625 15.8166 0.125 14.7749 0.125C13.7332 0.125 12.8855 0.96625 12.8855 2C12.8855 3.03375 13.7332 3.875 14.7749 3.875Z" fill="white"/>
<path d="M2.17875 3.875C3.22045 3.875 4.06817 3.03375 4.06817 2C4.06817 0.96625 3.22045 0.125 2.17875 0.125C1.13705 0.125 0.289326 0.96625 0.289326 2C0.289326 3.03375 1.13705 3.875 2.17875 3.875Z" fill="white"/>
</svg>
