<svg width="12" height="13" viewBox="0 0 12 13" fill="none" xmlns="http://www.w3.org/2000/svg">
<path d="M6.00038 12.0386C2.93927 12.0386 0.461914 9.5615 0.461914 6.50011C0.461914 3.43905 2.93899 0.961652 6.00038 0.961652C9.06148 0.961652 11.5388 3.43873 11.5388 6.50011C11.5388 9.56117 9.06176 12.0386 6.00038 12.0386ZM6.56913 4.30158C6.56913 4.1266 6.31397 3.95166 6.00048 3.95166C5.67242 3.95166 5.43915 4.1266 5.43915 4.30158V7.07919C5.43915 7.28331 5.67244 7.42186 6.00048 7.42186C6.31397 7.42186 6.56913 7.28331 6.56913 7.07919V4.30158ZM6.00051 8.09251C5.66515 8.09251 5.40272 8.34037 5.40272 8.61743C5.40272 8.89446 5.66517 9.13504 6.00051 9.13504C6.32857 9.13504 6.59104 8.89446 6.59104 8.61743C6.59104 8.34037 6.32855 8.09251 6.00051 8.09251Z" fill="white"/>
</svg>
