<svg width="17" height="18" viewBox="0 0 17 18" fill="none" xmlns="http://www.w3.org/2000/svg">
<path d="M8.5 0.5C3.80206 0.5 0 4.30163 0 9C0 13.6979 3.80163 17.5 8.5 17.5C13.1979 17.5 17 13.6984 17 9C17 4.30212 13.1984 0.5 8.5 0.5ZM9.37288 12.3741C9.37288 12.6427 8.98128 12.9112 8.50017 12.9112C7.99667 12.9112 7.63868 12.6427 7.63868 12.3741V8.11128C7.63868 7.79801 7.99671 7.58538 8.50017 7.58538C8.98128 7.58538 9.37288 7.79801 9.37288 8.11128V12.3741ZM8.5002 6.55612C7.98552 6.55612 7.58276 6.17571 7.58276 5.75051C7.58276 5.32534 7.98555 4.95612 8.5002 4.95612C9.00369 4.95612 9.40651 5.32534 9.40651 5.75051C9.40651 6.17571 9.00366 6.55612 8.5002 6.55612Z" fill="#F58500"/>
</svg>
