<svg width="10" height="11" viewBox="0 0 10 11" fill="none" xmlns="http://www.w3.org/2000/svg">
<path fill-rule="evenodd" clip-rule="evenodd" d="M2.60001 0.700195C2.26864 0.700195 2.00001 0.968824 2.00001 1.3002V1.9002H1.40001C0.737271 1.9002 0.200012 2.43745 0.200012 3.1002V9.1002C0.200012 9.76294 0.737271 10.3002 1.40001 10.3002H8.60001C9.26275 10.3002 9.80001 9.76294 9.80001 9.1002V3.1002C9.80001 2.43745 9.26275 1.9002 8.60001 1.9002H8.00001V1.3002C8.00001 0.968825 7.73138 0.700195 7.40001 0.700195C7.06864 0.700195 6.80001 0.968824 6.80001 1.3002V1.9002H3.20001V1.3002C3.20001 0.968825 2.93138 0.700195 2.60001 0.700195ZM2.60001 3.7002C2.26864 3.7002 2.00001 3.96882 2.00001 4.3002C2.00001 4.63157 2.26864 4.9002 2.60001 4.9002H7.40001C7.73138 4.9002 8.00001 4.63157 8.00001 4.3002C8.00001 3.96882 7.73138 3.7002 7.40001 3.7002H2.60001Z" fill="white"/>
</svg>
