<svg width="19" height="13" viewBox="0 0 19 13" fill="none" xmlns="http://www.w3.org/2000/svg">
<g clip-path="url(#clip0_159_9541)">
<path d="M17.3301 9.19332H14.7324C13.1978 9.19332 11.9492 8.00477 11.9492 6.54386C11.9492 5.08295 13.1978 3.8944 14.7324 3.8944H17.3301V1.47457C17.3301 0.694178 16.6655 0.0615234 15.8457 0.0615234H1.48438C0.664592 0.0615234 0 0.694178 0 1.47457V11.5868C0 12.3672 0.664592 12.9999 1.48438 12.9999H15.8457C16.6655 12.9999 17.3301 12.3672 17.3301 11.5868V9.19332Z" fill="#44749C"/>
<path d="M18.4434 4.9541H14.7324C13.8116 4.9541 13.0625 5.66723 13.0625 6.54378C13.0625 7.42032 13.8116 8.13345 14.7324 8.13345H18.4434C18.7503 8.13345 19 7.89574 19 7.60356V5.48399C19 5.19181 18.7503 4.9541 18.4434 4.9541ZM14.7324 7.07367C14.425 7.07367 14.1758 6.83642 14.1758 6.54378C14.1758 6.25113 14.425 6.01388 14.7324 6.01388C15.0398 6.01388 15.2891 6.25113 15.2891 6.54378C15.2891 6.83642 15.0398 7.07367 14.7324 7.07367Z" fill="#44749C"/>
</g>
<defs>
<clipPath id="clip0_159_9541">
<rect width="19" height="13" fill="white"/>
</clipPath>
</defs>
</svg>
